<?xml version="1.0" standalone="no"?>
<!DOCTYPE svg PUBLIC "-//W3C//DTD SVG 20010904//EN"
 "http://www.w3.org/TR/2001/REC-SVG-20010904/DTD/svg10.dtd">
<svg version="1.0" xmlns="http://www.w3.org/2000/svg"
 width="773.000000pt" height="773.000000pt" viewBox="0 0 773.000000 773.000000"
 preserveAspectRatio="xMidYMid meet">
<metadata>
Created by potrace 1.11, written by Peter Selinger 2001-2013
</metadata>
<g transform="translate(0.000000,773.000000) scale(0.100000,-0.100000)"
fill="#000000" stroke="none">
<path d="M694 7295 c-183 -42 -290 -101 -425 -235 -83 -82 -102 -109 -146
-197 -66 -132 -88 -223 -88 -378 0 -215 9 -236 378 -875 167 -289 514 -889
772 -1335 257 -445 559 -968 671 -1162 112 -193 207 -360 211 -370 15 -40
1098 -1912 1136 -1963 174 -232 419 -350 702 -337 130 6 201 24 310 76 137 65
247 161 335 291 45 68 1098 1893 1111 1927 13 34 153 276 199 343 21 30 50 79
64 109 15 29 294 515 620 1080 326 564 698 1208 826 1431 129 223 246 434 261
470 85 204 76 478 -23 673 -43 87 -76 132 -153 210 -111 112 -208 171 -350
212 -74 21 -107 25 -224 25 -84 0 -160 -6 -199 -15 -189 -45 -369 -169 -476
-328 -30 -45 -258 -435 -507 -867 -588 -1021 -1178 -2042 -1216 -2105 -17 -27
-68 -117 -114 -200 -45 -82 -165 -292 -265 -466 -100 -174 -194 -340 -209
-369 l-27 -52 -115 198 c-64 110 -122 213 -129 230 -7 16 -78 143 -158 281
-79 138 -161 284 -181 324 -21 41 -48 89 -62 107 -26 34 -161 267 -1139 1961
-294 508 -554 952 -579 987 -107 149 -270 258 -465 310 -80 21 -271 27 -346 9z"/>
</g>
</svg>
